<?xml version="1.0" encoding="UTF-8"?>
<svg width="85px" height="20px" viewBox="0 0 85 20" version="1.1" xmlns="http://www.w3.org/2000/svg" xmlns:xlink="http://www.w3.org/1999/xlink">
    <title>4858CE9D-8277-4419-8ABE-67C1DFD9D82F</title>
    <defs>
        <filter id="filter-1">
            <feColorMatrix in="SourceGraphic" type="matrix" values="0 0 0 0 0.501961 0 0 0 0 0.160784 0 0 0 0 0.560784 0 0 0 1.000000 0"></feColorMatrix>
        </filter>
        <polygon id="path-2" points="0.0366606 -0.000156214286 3.0553686 -0.000156214286 3.0553686 14.3088068 0.0366606 14.3088068"></polygon>
        <polygon id="path-4" points="0.1251126 0.0382763368 9.534186 0.0382763368 9.534186 9.32343421 0.1251126 9.32343421"></polygon>
        <polygon id="path-6" points="0 0.138566365 10.9863054 0.138566365 10.9863054 14.3065148 0 14.3065148"></polygon>
    </defs>
    <g id="Home-2.3" stroke="none" stroke-width="1" fill="none" fill-rule="evenodd">
        <g id="FBC---Home---2.3.6---Tablet" transform="translate(-882.000000, -195.000000)">
            <g id="Group-9" transform="translate(810.000000, 187.000000)">
                <g id="catalyx" transform="translate(11.000000, 8.000000)" filter="url(#filter-1)">
                    <g transform="translate(61.000000, 0.000000)">
                        <path d="M30.6220092,12.7436168 C31.7678372,12.7436168 32.4987964,12.5766728 33.21,12.3169822 L33.21,14.1162668 C32.4395295,14.4316054 31.5110137,14.58 30.4837196,14.58 C26.9868054,14.58 25.92,12.6137715 25.92,9.72007663 C25.92,6.82622853 26.9868054,4.86 30.4837196,4.86 C31.5110137,4.86 32.4395295,5.00839461 33.21,5.32373314 L33.21,7.12301775 C32.4987964,6.86348048 31.7678372,6.69638325 30.6220092,6.69638325 C28.7057106,6.69638325 28.1525523,7.92063875 28.1525523,9.72007663 C28.1525523,11.5193612 28.7057106,12.7436168 30.6220092,12.7436168" id="Fill-1" fill="#5E0D73"></path>
                        <path d="M37.80125,10.0725139 C36.8061842,10.1838098 36.229046,10.536247 36.229046,11.5006586 C36.229046,12.2056863 36.5474671,12.873462 37.7614473,12.873462 C38.6570066,12.873462 39.2741118,12.6321675 39.8910526,12.261181 L39.8910526,9.84992189 L37.80125,10.0725139 Z M37.9405592,6.64073527 C36.6469737,6.64073527 35.5922039,6.91912846 34.835954,7.19721504 L34.835954,5.39793044 C35.6121053,5.08259191 36.9255921,4.86 38.0997698,4.86 C41.36375,4.86 42.12,6.19555146 42.12,8.16193325 L42.12,14.3574081 L40.8063487,14.3574081 L40.4482894,13.6154351 C39.6520724,14.2274095 38.5377632,14.58 37.4430263,14.58 C34.8757566,14.58 34.02,13.0959007 34.02,11.6121079 C34.02,9.60878068 35.4130921,8.75535845 37.6619408,8.58841445 L39.8910526,8.42147053 L39.8910526,7.9577374 C39.8910526,7.01172179 39.4132566,6.64073527 37.9405592,6.64073527 L37.9405592,6.64073527 Z" id="Fill-3" fill="#5E0D73"></path>
                        <path d="M49.9374487,14.4431691 C49.6172238,14.5211967 49.0897946,14.58 48.7695697,14.58 C46.678534,14.58 45.4541448,13.6417312 45.4541448,11.5306262 L45.4541448,6.42862784 L43.74,6.42862784 L43.74,5.07986638 L45.4541448,4.57163742 L45.4541448,2.24551256 L47.5640173,1.62 L47.5640173,4.57163742 L50.22,4.57163742 L50.22,6.42862784 L47.5640173,6.42862784 L47.5640173,11.2763502 C47.5640173,12.2538751 48.0349362,12.7230096 49.1086313,12.7230096 C49.4288562,12.7230096 49.7114076,12.6839151 49.9374487,12.6448205 L49.9374487,14.4431691 Z" id="Fill-5" fill="#5E0D73"></path>
                        <path d="M54.81125,10.0725139 C53.8161842,10.1838098 53.239046,10.536247 53.239046,11.5006586 C53.239046,12.2056863 53.5574671,12.873462 54.7714473,12.873462 C55.6670066,12.873462 56.2841118,12.6321675 56.9010526,12.261181 L56.9010526,9.84992189 L54.81125,10.0725139 Z M54.9505592,6.64073527 C53.6569737,6.64073527 52.6022039,6.91912846 51.845954,7.19721504 L51.845954,5.39793044 C52.6221053,5.08259191 53.9355921,4.86 55.1097698,4.86 C58.37375,4.86 59.13,6.19555146 59.13,8.16193325 L59.13,14.3574081 L57.8163487,14.3574081 L57.4582894,13.6154351 C56.6620724,14.2274095 55.5477632,14.58 54.4530263,14.58 C51.8857566,14.58 51.03,13.0959007 51.03,11.6121079 C51.03,9.60878068 52.4230921,8.75535845 54.6719408,8.58841445 L56.9010526,8.42147053 L56.9010526,7.9577374 C56.9010526,7.01172179 56.4232566,6.64073527 54.9505592,6.64073527 L54.9505592,6.64073527 Z" id="Fill-7" fill="#5E0D73"></path>
                        <g id="Fill-9-Clipped" transform="translate(60.750000, 0.000000)">
                            <mask id="mask-3" fill="white">
                                <use xlink:href="#path-2"></use>
                            </mask>
                            <g id="path-1"></g>
                            <path d="M0.0366606,11.8515561 L0.0366606,-0.000265564286 L2.2320846,-0.000265564286 L2.2320846,11.8326542 C2.2320846,12.3619082 2.4281046,12.5509274 3.0553686,12.5509274 L3.0553686,14.2710029 C3.0553686,14.2710029 2.8593486,14.3088068 2.6242866,14.3088068 C0.8403426,14.3088068 0.0366606,13.4771219 0.0366606,11.8515561" id="Fill-9" fill="#5E0D73" mask="url(#mask-3)"></path>
                        </g>
                        <polygon id="Fill-12" fill="#5E0D73" points="67.1308455 4.86 69.2550777 11.8002406 71.3791545 4.86 73.71 4.86 68.3338624 19.44 65.9842198 19.44 68.3150653 14.2496806 64.8 4.86"></polygon>
                        <g id="Fill-14-Clipped" transform="translate(74.520000, 4.860000)">
                            <mask id="mask-5" fill="white">
                                <use xlink:href="#path-4"></use>
                            </mask>
                            <g id="path-3"></g>
                            <polygon id="Fill-14" fill="#5E0D73" mask="url(#mask-5)" points="4.8295926 5.88807928 2.6537706 9.32343421 0.1251126 9.32343421 3.4574526 4.55086307 0.3407346 0.0382763368 2.8301886 0.0382763368 4.8295926 3.26951128 6.8291586 0.0382763368 9.3186126 0.0382763368 6.2018946 4.55086307 9.5342346 9.32343421 7.0055766 9.32343421"></polygon>
                        </g>
                        <path d="M22.7530076,6.48 L18.63,9.65840954 L22.7172035,12.96 C23.7111776,10.9817866 23.7709508,8.56395277 22.7530076,6.48" id="Fill-17" fill="#5E0D73"></path>
                        <path d="M16.144294,8.1 L21.06,4.42975586 C18.3365568,1.80806105 14.1144151,1.76465284 11.34,4.29663737 L16.144294,8.1 Z" id="Fill-19" fill="#5E0D73"></path>
                        <path d="M16.2248257,11.34 L11.34,15.0136612 C12.6124143,16.249475 14.3368275,17.01 16.2375888,17.01 C18.1009948,17.01 19.7953681,16.2794666 21.06,15.0864304 L16.2248257,11.34 Z" id="Fill-21" fill="#5E0D73"></path>
                        <path d="M13.77,9.74806666 L9.69498266,6.48 C8.67988111,8.50744102 8.65216501,10.9202254 9.59511436,12.96 L13.77,9.74806666 Z" id="Fill-23" fill="#5E0D73"></path>
                        <g id="Fill-25-Clipped" transform="translate(0.000000, 2.430000)">
                            <mask id="mask-7" fill="white">
                                <use xlink:href="#path-6"></use>
                            </mask>
                            <g id="path-5"></g>
                            <path d="M9.2308734,11.0869722 C6.3098514,12.7176642 2.6543214,10.6137702 2.6543214,7.2224622 C2.6543214,3.7720242 6.4269774,1.6742862 9.3489714,3.4258302 C9.7785954,2.6375382 10.3339314,1.9279782 10.9863054,1.3217742 C6.3218394,-1.7740458 -4.86e-05,1.5584562 -4.86e-05,7.2224622 C-4.86e-05,12.7881342 6.1261434,16.1384562 10.7998434,13.2428682 C10.1669094,12.6170622 9.6360354,11.8893582 9.2308734,11.0869722" id="Fill-25" fill="#5E0D73" mask="url(#mask-7)"></path>
                        </g>
                    </g>
                </g>
            </g>
        </g>
    </g>
</svg>