<?xml version="1.0" standalone="no"?>
<!DOCTYPE svg PUBLIC "-//W3C//DTD SVG 20010904//EN"
 "http://www.w3.org/TR/2001/REC-SVG-20010904/DTD/svg10.dtd">
<svg version="1.0" xmlns="http://www.w3.org/2000/svg"
 width="937.000000pt" height="937.000000pt" viewBox="0 0 937.000000 937.000000"
 preserveAspectRatio="xMidYMid meet">
<metadata>
Created by potrace 1.14, written by Peter Selinger 2001-2017
</metadata>
<g transform="translate(0.000000,937.000000) scale(0.100000,-0.100000)"
fill="#000000" stroke="none">
<path d="M4360 9351 c-36 -10 -120 -39 -188 -66 -113 -43 -131 -47 -225 -50
-135 -4 -231 -34 -623 -191 -108 -44 -264 -134 -264 -153 0 -5 -13 -12 -29
-16 -35 -8 -116 -64 -230 -159 -46 -39 -102 -84 -124 -101 -71 -52 -206 -186
-279 -278 -76 -97 -144 -168 -198 -208 -19 -15 -75 -61 -125 -103 -49 -43
-110 -94 -134 -114 -54 -45 -81 -73 -81 -83 0 -4 -25 -36 -55 -71 -30 -34 -55
-70 -55 -78 0 -9 -9 -23 -20 -33 -11 -9 -20 -23 -20 -31 0 -7 -7 -19 -15 -26
-8 -7 -15 -21 -15 -32 0 -11 -6 -34 -14 -51 -15 -38 -36 -119 -36 -146 0 -32
30 -80 45 -74 8 3 15 13 15 23 0 11 5 22 10 25 6 3 10 19 10 35 0 18 11 42 28
62 16 18 42 61 59 95 61 119 133 212 133 169 0 -18 -78 -198 -116 -266 -39
-72 -68 -144 -90 -225 -14 -49 -33 -106 -42 -125 -15 -31 -22 -35 -59 -38
l-43 -3 0 -63 c0 -62 1 -64 29 -69 24 -5 28 -10 24 -31 -3 -16 0 -28 8 -31 11
-4 13 -31 11 -128 -1 -67 -7 -131 -12 -142 -5 -11 -11 -41 -14 -66 -2 -26 -14
-65 -25 -87 -25 -49 -28 -117 -6 -126 13 -4 14 -10 5 -26 -19 -36 5 -53 34
-24 15 14 16 12 16 -19 0 -22 -6 -37 -15 -41 -14 -5 -15 -17 -6 -66 1 -3 6 2
11 10 8 12 10 11 10 -7 0 -16 -6 -23 -19 -23 -11 0 -22 -8 -25 -17 -9 -35 -6
-276 5 -289 6 -7 12 -37 13 -67 3 -52 44 -147 65 -147 20 0 70 -64 73 -93 2
-22 9 -33 22 -35 16 -4 18 0 13 27 -6 28 -4 31 18 31 14 0 28 1 33 2 4 0 18
-19 31 -43 18 -34 26 -67 31 -144 13 -160 20 -195 40 -195 10 0 25 11 34 25
21 32 33 25 46 -28 21 -80 53 -149 79 -168 26 -19 27 -24 30 -126 4 -166 52
-357 126 -505 64 -127 228 -312 350 -395 126 -85 301 -158 443 -185 38 -7 138
-13 232 -13 173 1 266 16 400 66 242 90 486 306 601 531 64 126 109 290 109
399 0 40 6 63 19 80 32 41 106 71 202 81 114 12 179 -1 251 -50 l53 -38 7 -79
c29 -356 242 -676 569 -857 78 -43 220 -96 309 -114 161 -33 396 -23 580 25
231 59 476 235 613 442 49 74 70 114 117 224 12 26 24 87 21 99 -1 6 2 19 7
30 14 30 32 123 35 181 2 44 5 52 30 63 27 13 29 32 3 32 -23 0 -44 133 -25
156 11 13 16 11 46 -18 52 -50 65 -35 79 93 12 107 38 251 55 304 5 17 23 42
40 56 l31 25 -21 42 c-11 23 -21 46 -21 52 0 6 20 45 44 88 25 42 61 129 81
192 37 112 37 117 26 185 -11 65 -22 85 -46 85 -5 0 -11 -17 -12 -37 -2 -46
-42 -125 -66 -131 -12 -3 -17 -11 -14 -23 3 -11 1 -19 -4 -19 -5 0 -9 5 -9 12
0 28 36 126 60 163 36 56 54 101 99 245 70 228 91 362 91 588 0 150 -13 232
-36 232 -9 0 -14 11 -14 28 0 36 -37 181 -49 196 -6 7 -33 57 -62 111 -56 110
-95 170 -128 199 -11 11 -21 25 -21 31 0 7 -24 35 -54 62 -30 27 -60 61 -67
76 -6 14 -21 27 -31 29 -11 2 -34 22 -51 46 -25 34 -28 45 -18 51 24 15 -6
119 -41 143 -9 7 -10 11 -2 14 16 7 -13 64 -32 64 -10 0 -13 7 -8 26 5 20 2
26 -15 31 -16 4 -19 11 -15 27 3 14 -1 28 -10 35 -9 8 -16 20 -16 27 0 20 -38
89 -60 109 -11 10 -20 22 -20 26 0 16 -90 126 -117 144 -15 10 -32 24 -38 30
-5 7 -46 41 -90 77 -106 85 -169 118 -270 138 -22 5 -58 15 -80 23 -49 19
-289 29 -305 13 -7 -7 -13 -7 -21 1 -13 13 -164 6 -192 -9 -11 -5 -32 -12 -46
-14 -75 -10 -128 -21 -139 -28 -8 -4 -29 -9 -48 -10 -32 -1 -34 1 -34 29 0 45
-40 165 -69 205 -42 59 -103 120 -166 167 -61 47 -154 93 -185 93 -9 0 -32 8
-51 17 -29 15 -73 18 -329 20 -262 3 -302 1 -360 -16z m135 -26 c-16 -8 -37
-14 -45 -15 -8 0 -46 -11 -85 -25 -169 -60 -313 -85 -200 -35 108 48 250 89
305 89 55 -1 55 -1 25 -14z m376 -56 c135 -49 239 -98 239 -113 0 -4 -11 -5
-25 -2 -110 28 -330 57 -440 59 -33 0 -122 -1 -197 -3 -181 -6 -195 7 -53 51
85 26 158 36 291 38 89 1 110 -2 185 -30z m1818 -773 c19 -17 41 -37 49 -43 7
-7 17 -13 22 -13 29 0 123 -120 107 -136 -5 -5 -78 68 -131 132 -22 25 -54 52
-71 60 -17 7 -38 21 -46 30 -24 30 31 6 70 -30z m338 -383 c60 -66 75 -90 71
-121 -3 -26 -4 -26 -32 18 -37 58 -34 56 -48 42 -19 -19 -25 -14 -20 18 2 18
-2 40 -12 55 -35 53 -15 47 41 -12z m-2627 -678 c0 -8 -4 -15 -10 -15 -5 0 -7
7 -4 15 4 8 8 15 10 15 2 0 4 -7 4 -15z m1027 -185 c79 14 114 2 76 -25 -38
-28 12 -59 57 -35 29 16 200 -63 264 -122 11 -10 23 -18 27 -18 9 0 79 -95
102 -140 58 -111 111 -310 132 -495 10 -87 85 -316 149 -457 14 -32 22 -59 18
-62 -4 -2 -32 0 -62 5 -30 5 -108 9 -172 10 -113 1 -178 -8 -333 -47 -33 -8
-89 -21 -124 -29 -35 -8 -72 -21 -81 -30 -9 -8 -23 -15 -31 -15 -26 0 -40 -22
-23 -35 13 -9 -2 -25 -91 -100 -194 -162 -298 -318 -362 -540 -21 -74 -43
-177 -43 -202 0 -28 -9 -29 -52 -4 -18 11 -59 24 -90 31 -77 15 -257 3 -321
-21 -26 -11 -51 -19 -55 -19 -5 0 -14 34 -21 75 -8 41 -18 72 -22 69 -5 -3 -9
8 -9 25 0 16 -4 32 -9 35 -4 3 -11 24 -15 47 -4 23 -31 92 -60 153 -40 85 -72
135 -134 208 l-81 96 15 31 c18 37 12 61 -16 68 -24 6 -28 53 -5 53 21 0 19 9
-6 29 l-22 17 39 31 c22 17 61 38 87 47 176 60 385 231 451 370 57 119 113
430 131 721 6 88 12 120 32 160 29 59 58 91 95 111 42 22 237 12 306 -15 58
-23 60 -23 105 43 l18 26 38 -31 c38 -30 39 -30 98 -19z m539 -1437 c-8 -16
-29 -48 -45 -73 -38 -55 -40 -75 -8 -65 41 14 125 17 189 6 167 -27 182 -31
207 -54 41 -37 114 -87 127 -87 7 0 28 -19 47 -42 46 -55 70 -48 65 19 l-3 48
40 -2 c30 -1 45 -8 63 -30 12 -15 27 -27 33 -25 25 6 49 -19 49 -53 0 -26 7
-38 29 -54 36 -26 39 -26 62 2 10 12 18 16 19 10 0 -7 -4 -13 -10 -13 -5 0
-10 -13 -10 -28 0 -30 97 -191 116 -192 6 0 19 18 29 40 10 22 20 38 23 36 2
-3 -7 -28 -21 -56 -27 -53 -26 -79 3 -105 17 -16 19 -15 35 12 9 15 13 19 9 8
-13 -37 -10 -70 7 -69 11 1 14 -5 11 -22 -4 -24 32 -94 49 -94 5 0 9 -7 9 -15
0 -8 9 -23 20 -32 17 -15 20 -30 20 -106 0 -130 -29 -237 -106 -392 -95 -193
-198 -306 -394 -436 -169 -112 -450 -182 -637 -159 -138 17 -201 30 -297 62
-284 95 -523 311 -632 570 -26 60 -32 84 -23 94 8 9 5 20 -10 41 -13 17 -23
48 -25 78 -2 28 -11 66 -19 87 -28 63 -8 258 40 392 53 148 120 265 214 373
60 68 149 143 171 143 8 0 23 9 34 21 10 11 27 25 37 31 16 8 17 7 8 -11 -18
-33 -13 -38 40 -45 39 -5 55 -3 68 9 10 8 28 15 42 15 13 0 38 7 54 16 17 9
58 16 95 17 l64 2 39 55 c58 84 71 100 80 100 4 0 1 -12 -7 -27z m-2816 -3 c0
-11 -4 -20 -9 -20 -18 0 -191 -273 -210 -333 -16 -47 -7 -95 13 -78 8 7 17 27
20 45 4 19 20 52 36 74 36 50 98 72 204 72 39 0 89 5 111 11 22 5 82 19 134
30 52 11 104 25 115 32 58 32 227 21 315 -21 18 -9 46 -15 61 -14 32 4 83 -36
160 -124 130 -147 217 -336 240 -516 17 -136 -2 -354 -36 -406 -9 -13 -13 -33
-10 -44 3 -12 -13 -60 -38 -117 -72 -165 -165 -283 -300 -383 -143 -107 -232
-148 -413 -194 -96 -24 -126 -27 -268 -27 -168 0 -248 13 -397 64 -137 47
-294 151 -400 265 -49 52 -167 231 -168 255 0 8 -4 19 -9 25 -9 9 -71 187 -71
203 0 4 16 13 35 20 35 12 78 51 150 136 54 63 64 83 65 127 0 20 6 39 13 42
9 5 9 7 0 12 -10 4 -6 17 12 48 30 51 53 128 52 173 0 18 8 42 17 52 10 11 16
26 14 33 -3 7 21 33 53 58 68 53 78 65 154 189 62 101 59 100 141 76 24 -7 25
-5 135 163 61 92 79 109 79 72z m-581 -292 c-75 -122 -119 -185 -119 -170 0
24 169 286 178 277 2 -2 -25 -50 -59 -107z m-734 44 l7 -24 -22 22 c-13 13
-19 28 -15 38 5 15 7 15 14 2 5 -8 12 -26 16 -38z m415 -812 c9 -5 19 -5 27 2
8 6 16 8 20 5 3 -4 -8 -14 -25 -24 -17 -10 -34 -27 -37 -38 -6 -18 -7 -17 -17
8 -16 44 -1 68 32 47z"/>
<path d="M6536 5432 c-4 -13 -5 -26 -2 -29 10 -11 18 4 14 29 l-4 23 -8 -23z"/>
<path d="M5885 5349 c-129 -10 -143 -13 -174 -43 -15 -14 -36 -26 -47 -26 -27
0 -88 -59 -114 -111 -13 -24 -30 -55 -40 -69 -30 -44 -30 -78 1 -144 51 -108
137 -186 203 -186 12 0 31 -7 42 -15 26 -19 103 -19 167 2 66 21 156 79 167
109 5 12 15 26 23 31 8 4 19 18 26 30 28 54 2 93 -52 76 -22 -7 -40 -6 -56 1
-16 7 -28 6 -42 -2 -17 -11 -19 -9 -19 11 0 21 -7 25 -63 37 -55 11 -65 17
-74 41 -13 34 -7 40 55 58 33 9 47 9 57 1 8 -7 36 -11 62 -9 26 1 56 -1 67 -6
12 -5 21 -3 26 5 11 18 2 38 -21 45 -13 4 -19 16 -19 36 0 22 -8 34 -31 48
-71 43 23 28 109 -17 64 -34 128 -102 136 -144 8 -45 41 -88 67 -88 21 0 24
11 9 38 -5 9 -14 36 -20 59 -6 23 -22 56 -37 73 -34 42 -138 108 -188 121 -22
6 -53 17 -70 24 -46 20 -54 21 -150 14z"/>
<path d="M6285 4273 c-3 -16 -9 -40 -14 -54 -10 -32 0 -52 24 -47 32 6 39 31
25 82 -14 52 -27 59 -35 19z"/>
<path d="M6510 4284 c0 -3 15 -24 34 -47 19 -23 36 -51 38 -62 2 -15 11 -20
32 -20 16 0 31 5 33 12 5 14 -104 123 -123 123 -8 0 -14 -3 -14 -6z"/>
<path d="M6040 4251 c-6 -16 -10 -38 -8 -48 6 -30 31 -20 40 16 16 59 -10 85
-32 32z"/>
<path d="M3530 5340 c-14 -4 -41 -8 -60 -9 -41 -1 -94 -31 -110 -61 -16 -31
-4 -37 32 -17 45 26 53 10 16 -31 -18 -21 -39 -57 -47 -82 -7 -25 -19 -57 -27
-72 -20 -38 -17 -68 11 -110 13 -20 32 -56 41 -79 10 -24 24 -52 33 -63 20
-22 64 -46 87 -46 10 0 27 -9 39 -20 16 -15 35 -19 90 -19 39 0 91 -1 117 -1
42 0 50 3 75 35 19 24 36 35 54 35 31 0 75 44 84 85 3 17 11 47 17 68 14 45
-2 74 -21 38 -13 -23 -50 -28 -68 -10 -13 13 -50 4 -56 -14 -2 -7 -3 -4 -1 6
2 14 -11 25 -48 42 -134 62 -128 113 16 134 70 10 81 9 97 -5 17 -16 19 -16
25 0 4 10 -1 26 -14 39 -12 13 -22 39 -24 62 -3 34 -7 40 -28 43 -14 2 -29 8
-35 13 -5 5 -22 9 -38 9 -15 0 -38 5 -49 11 -12 6 -49 13 -82 15 -34 2 -70 5
-81 8 -11 2 -31 1 -45 -4z"/>
<path d="M3251 5236 c-69 -51 -141 -142 -141 -179 0 -15 20 -27 45 -27 7 0 15
16 18 36 6 36 47 106 77 132 8 7 27 18 42 23 14 6 29 17 32 25 9 23 -36 17
-73 -10z"/>
<path d="M2993 4350 c-3 -11 -12 -20 -19 -20 -16 0 -19 -26 -4 -35 14 -9 75
28 75 44 0 8 -11 18 -23 22 -20 7 -25 5 -29 -11z"/>
<path d="M3184 4308 c-66 -58 -105 -144 -74 -163 15 -9 40 14 40 36 0 11 9 27
20 36 11 10 20 26 20 37 0 10 11 29 25 42 26 24 33 44 15 44 -5 0 -26 -14 -46
-32z"/>
<path d="M3410 4280 c0 -5 -6 -10 -12 -10 -31 -1 -67 -91 -49 -119 13 -20 63
59 66 104 1 19 0 35 -2 35 -1 0 -3 -4 -3 -10z"/>
<path d="M7270 4769 c0 -7 -7 -20 -15 -29 -14 -15 -13 -19 5 -35 25 -22 28
-20 32 29 2 25 -2 41 -9 43 -7 3 -13 -1 -13 -8z"/>
<path d="M4633 4012 c-42 -16 -47 -23 -45 -69 2 -58 87 -92 183 -74 117 23
139 48 95 106 -27 35 -31 36 -151 48 -22 2 -59 -3 -82 -11z"/>
<path d="M4216 3351 c-10 -16 29 -38 114 -64 136 -42 162 -47 220 -46 l55 1
-73 13 c-134 25 -222 47 -222 56 0 7 -71 49 -84 49 -3 0 -7 -4 -10 -9z"/>
<path d="M5290 3340 c-14 -10 -22 -22 -18 -25 7 -7 63 20 73 35 11 17 -29 10
-55 -10z"/>
<path d="M5220 3300 c-13 -8 -12 -10 3 -10 9 0 17 5 17 10 0 12 -1 12 -20 0z"/>
<path d="M5145 3280 c-3 -5 -26 -10 -50 -10 -24 0 -47 -4 -50 -10 -8 -14 19
-12 88 4 65 15 83 26 44 26 -14 0 -29 -4 -32 -10z"/>
<path d="M4955 3248 c-33 -4 -112 -7 -175 -7 -63 1 -128 0 -145 -1 l-30 -2 35
-8 c44 -11 374 1 386 13 11 11 -14 13 -71 5z"/>
<path d="M5337 1713 c-14 -14 -6 -35 28 -69 42 -42 77 -108 73 -136 -4 -26
-18 -33 -90 -46 -32 -6 -72 -17 -90 -26 -116 -52 -242 -89 -343 -102 -258 -33
-482 -9 -733 80 -41 14 -84 26 -96 26 -51 0 -53 37 -5 78 18 14 29 35 31 55 2
25 14 40 51 67 97 72 31 97 -93 35 -92 -46 -151 -60 -167 -38 -10 13 -17 14
-42 3 -16 -6 -38 -21 -48 -32 -10 -11 -37 -29 -60 -39 -26 -11 -86 -62 -161
-136 -65 -65 -137 -129 -161 -143 -53 -31 -234 -151 -241 -159 -3 -3 -21 -15
-40 -25 -19 -11 -51 -32 -70 -47 -19 -16 -60 -48 -90 -71 -37 -30 -80 -80
-133 -158 -86 -127 -123 -199 -227 -440 -22 -52 -62 -133 -89 -180 -70 -123
-111 -198 -111 -204 0 -4 1022 -6 2270 -6 1249 0 2270 2 2270 4 0 12 -55 148
-83 204 -52 105 -160 300 -205 372 -23 36 -42 70 -42 77 0 6 -16 32 -36 58
-28 38 -34 52 -29 76 5 21 1 37 -16 60 -20 29 -24 30 -34 15 -11 -15 -15 -13
-40 16 -16 18 -41 60 -56 94 -32 71 -42 80 -92 89 -22 4 -45 17 -56 32 -11 13
-59 58 -108 100 -116 100 -194 180 -302 308 -96 114 -131 143 -198 166 -43 14
-97 23 -160 25 -52 2 -104 6 -116 9 -12 4 -29 9 -38 11 -8 2 -18 1 -22 -3z
m-692 -452 c-3 -6 -11 -8 -17 -5 -6 4 -5 9 3 15 16 10 23 4 14 -10z m90 9 c3
-5 -1 -10 -10 -10 -9 0 -13 5 -10 10 3 6 8 10 10 10 2 0 7 -4 10 -10z"/>
</g>
</svg>
