<?xml version="1.0" standalone="no"?>
<!DOCTYPE svg PUBLIC "-//W3C//DTD SVG 20010904//EN"
 "http://www.w3.org/TR/2001/REC-SVG-20010904/DTD/svg10.dtd">
<svg version="1.0" xmlns="http://www.w3.org/2000/svg"
 width="860.000000pt" height="925.000000pt" viewBox="0 0 860.000000 925.000000"
 preserveAspectRatio="xMidYMid meet">

<g transform="translate(0.000000,925.000000) scale(0.100000,-0.100000)"
fill="#06A8FF" stroke="none">
<path d="M5920 8257 l0 -584 -107 -7 c-796 -50 -1652 -297 -2366 -681 -636
-342 -1139 -740 -1653 -1305 -80 -88 -209 -247 -312 -384 -595 -797 -982
-1733 -1117 -2709 -47 -338 -48 -365 -52 -1180 l-4 -787 825 0 826 0 0 673 c0
683 5 796 41 1062 110 810 470 1595 1016 2215 642 728 1491 1212 2438 1389 98
18 233 37 408 56 l57 6 0 -575 c0 -317 3 -576 6 -576 4 0 99 78 212 173 113
94 293 246 401 337 1229 1031 1750 1473 1746 1480 -7 11 -2345 1974 -2356
1978 -5 2 -9 -227 -9 -581z"/>
</g>
</svg>
