<svg xmlns="http://www.w3.org/2000/svg" xmlns:xlink="http://www.w3.org/1999/xlink" width="84" height="512" version="1.1" style=""><rect id="backgroundrect" width="100%" height="100%" x="0" y="0" fill="06A8FF" stroke="none"/>
 <g style="" class="currentLayer">
  <title>Layer 1</title>
  <g id="svg_23" class="">
   <path fill="white" stroke="#06A8FF" stroke-width="4" id="svg_24" d="m52.92520751953123,463.4706287384033 c7.3906,-66.594 -0.70703,-133.55 -4.6484000000000005,-200.1 c-4.2891,-72.371 5.675800000000001,-144.68 3.25,-217.1 c-0.3593800000000001,-10.809 -17.16,-10.84 -16.801,0 c2.4258,72.441 -7.0508,144.69 -3.2461,217.1 c3.5,66.668 12.051,133.39 4.6484000000000005,200.1 c-1.1953,10.758000000000001 15.617,10.641 16.797,0 l0.00010000000000000003,0 z"/>
   <path fill="white" stroke="#06A8FF" stroke-width="4" id="svg_25" d="m50.46520751953125,510.0106287384033 c12.375,-11.238 22.734,-24.309 32.109,-38.102 c3.8125,-5.6016 -1.3477000000000001,-12.297 -7.2539,-12.641 c-21.461,-1.2383 -42.926,-0.08984000000000002 -64.398,0 c-6.675800000000001,0.027340000000000007 -11.988,9.5938 -5.9414,14.34 c12.539,9.8398 23.453,21.461 32.289,34.699 c5.9766,8.9727 20.535,0.56641 14.504,-8.4766 c-9.6328,-14.449 -21.207,-27.352 -34.91,-38.102 c-1.9805,4.7812 -3.9609,9.5586 -5.9414,14.34 c21.477,-0.08984000000000002 42.941,-1.2383 64.398,0 c-2.418,-4.2109 -4.832,-8.4297 -7.2539,-12.641 c-8.6016,12.645 -18.148,24.398 -29.488,34.699 c-8.0273,7.2969 3.8906,19.145 11.887,11.883000000000001 l-0.00040000000000000013,0.0016000000000000003 z"/>
   <path fill="white" stroke="#06A8FF" stroke-width="4" id="svg_26" d="m12.365207519531225,47.92362873840332 c14.789,-9.5742 28.348,-21.191 40.902,-33.512 c-3.3867000000000003,0.43750000000000006 -6.7891,0.8750000000000001 -10.176,1.3086 c9.5078,7.2422 17.086,16.43 23.586,26.387 c1.6758000000000002,-4.1094 3.3477,-8.2266 5.0195,-12.336 c-21.359,3.9375 -42.086,3.9297 -63.57,2.4961 c-10.824,-0.7226600000000001 -10.754,16.082 0,16.801 c22.988,1.5272999999999999 45.215,1.1016 68.027,-3.1016 c5.2305,-0.9648400000000001 7.8242,-8.0469 5.0195,-12.336 c-8.1758,-12.527 -17.691,-23.348 -29.613,-32.414 c-2.9727,-2.2695 -7.7266,-1.0938 -10.176,1.3086 c-11.547,11.336 -23.895,22.07 -37.496,30.891000000000002 c-9.0586,5.8672 -0.64453,20.422 8.4766,14.508 l0.00040000000000000013,-0.0007000000000000002 z"/>
  </g>
 </g>
</svg>